<?xml version="1.0" encoding="UTF-8"?>
<level>
  <owner>Fistachka</owner>
  <repo>elimyaso3</repo>
  <version>v1.0.0</version>
  <next number="1" owner="Fistachka" repo="elimyaso3"/>
  <readme>
    <ru>0ab9a037a3aea84bc5326f601291c93425ebc6e905b2f74dda0e6ad0735d1dd9</ru>
    <en>4309a36a9861ac797ab6878c351df0fdfa6344c4302e9d9243b69a46d872226f</en>
  </readme>
  <license>b1b99f5538d1fd3702219bff50c665196dfa42f6ee755c37fe41a6178d6bc6e5</license>
  <exercise number="1">
    <scale>minor</scale>
    <bpm>168</bpm>
    <lowestNote>6</lowestNote>
    <tonalities>10</tonalities>
    <video name="12t.mp4" size="2645799" type="video/mp4" volume="0.5">61bef9c894b0f58719f68688d3d190b857fd8e68f2bd243a3e473e21d0021d0f</video>
    <notes>
      <note number="1" values="18" ticks="657" durationTicks="49" ppq="96" velocity="0.843"/>
      <note number="2" values="18" ticks="754" durationTicks="47" ppq="96" velocity="0.913"/>
      <note number="3" values="18" ticks="850" durationTicks="49" ppq="96" velocity="0.834"/>
      <note number="4" values="7" ticks="946" durationTicks="49" ppq="96" velocity="0.876"/>
      <note number="5" values="38" ticks="995" durationTicks="49" ppq="96" velocity="0.891"/>
      <note number="6" values="18" ticks="1091" durationTicks="49" ppq="96" velocity="0.833"/>
    </notes>
  </exercise>
  <exercise number="2">
    <scale>minor</scale>
    <bpm>168</bpm>
    <lowestNote>6</lowestNote>
    <tonalities>10</tonalities>
    <video name="13t.mp4" size="2324027" type="video/mp4" volume="0.5">8266a9659a80042f03665421b1265e3fc79ebcb413163ccccaddd9bc20d2aecf</video>
    <notes>
      <note number="1" values="18" ticks="233" durationTicks="49" ppq="96" velocity="0.843"/>
      <note number="2" values="18" ticks="330" durationTicks="47" ppq="96" velocity="0.906"/>
      <note number="3" values="18" ticks="426" durationTicks="49" ppq="96" velocity="0.827"/>
      <note number="4" values="7" ticks="521" durationTicks="72" ppq="96" velocity="0.906"/>
      <note number="5" values="38" ticks="618" durationTicks="74" ppq="96" velocity="0.835"/>
      <note number="6" values="18" ticks="783" durationTicks="69" ppq="96" velocity="0.924"/>
    </notes>
  </exercise>
  <exercise number="3">
    <scale>minor</scale>
    <bpm>168</bpm>
    <lowestNote>6</lowestNote>
    <tonalities>10</tonalities>
    <video name="14t.mp4" size="2188714" type="video/mp4" volume="0.5">6b8174214feb564bbe3f15d45c4a653ffb73d025e1310fd6b70deb1bf56805bd</video>
    <notes>
      <note number="1" values="28" ticks="128" durationTicks="74" ppq="96" velocity="0.843"/>
      <note number="2" values="28" ticks="226" durationTicks="73" ppq="96" velocity="0.906"/>
      <note number="3" values="28" ticks="322" durationTicks="70" ppq="96" velocity="0.942"/>
      <note number="4" values="28" ticks="420" durationTicks="49" ppq="96" velocity="0.867"/>
      <note number="5" values="28" ticks="515" durationTicks="54" ppq="96" velocity="0.906"/>
      <note number="6" values="38" ticks="562" durationTicks="97" ppq="96" velocity="0.832"/>
      <note number="7" values="28" ticks="658" durationTicks="95" ppq="96" velocity="0.922"/>
    </notes>
  </exercise>
  <exercise number="4">
    <scale>minor</scale>
    <bpm>168</bpm>
    <lowestNote>6</lowestNote>
    <tonalities>10</tonalities>
    <video name="15.mp4" size="2850177" type="video/mp4" volume="0.5">c81e92e553db1d80a2a9fc5386c24e5078f6f7a3f79f58e95d46b269041fcc9b</video>
    <notes>
      <note number="1" values="7" ticks="81" durationTicks="49" ppq="96" velocity="0.843"/>
      <note number="2" values="38" ticks="194" durationTicks="123" ppq="96" velocity="0.906"/>
      <note number="3" values="48" ticks="386" durationTicks="100" ppq="96" velocity="0.827"/>
      <note number="4" values="58" ticks="582" durationTicks="101" ppq="96" velocity="0.884"/>
    </notes>
  </exercise>
  <exercise number="5">
    <scale>minor</scale>
    <bpm>168</bpm>
    <lowestNote>6</lowestNote>
    <tonalities>10</tonalities>
    <video name="16t.mp4" size="2451666" type="video/mp4" volume="0.5">84f75bdd37eea474c2e664e5270694b001a3965da53199edaa27aba791bb6933</video>
    <notes>
      <note number="1" values="48" ticks="131" durationTicks="51" ppq="96" velocity="0.843"/>
      <note number="2" values="58" ticks="227" durationTicks="49" ppq="96" velocity="0.906"/>
      <note number="3" values="68" ticks="324" durationTicks="67" ppq="96" velocity="0.869"/>
      <note number="4" values="68" ticks="418" durationTicks="71" ppq="96" velocity="0.919"/>
      <note number="5" values="68" ticks="516" durationTicks="49" ppq="96" velocity="0.864"/>
      <note number="6" values="58" ticks="607" durationTicks="32" ppq="96" velocity="0.894"/>
      <note number="7" values="58" ticks="661" durationTicks="97" ppq="96" velocity="0.857"/>
      <note number="8" values="48" ticks="756" durationTicks="95" ppq="96" velocity="0.889"/>
    </notes>
  </exercise>
  <exercise number="6">
    <scale>minor</scale>
    <bpm>168</bpm>
    <lowestNote>6</lowestNote>
    <tonalities>10</tonalities>
    <video name="17t.mp4" size="2089772" type="video/mp4" volume="0.5">8b659ad86ca37a2c6e95532ebcbfa464bfc9f390087b70273f1492a377f47986</video>
    <notes>
      <note number="1" values="18" ticks="97" durationTicks="75" ppq="96" velocity="0.843"/>
      <note number="2" values="28" ticks="193" durationTicks="90" ppq="96" velocity="0.906"/>
      <note number="3" values="38" ticks="291" durationTicks="152" ppq="96" velocity="0.862"/>
      <note number="4" values="28" ticks="481" durationTicks="143" ppq="96" velocity="0.932"/>
      <note number="5" values="18" ticks="664" durationTicks="118" ppq="96" velocity="0.842"/>
    </notes>
  </exercise>
  <exercise number="7">
    <scale>minor</scale>
    <bpm>168</bpm>
    <lowestNote>6</lowestNote>
    <tonalities>10</tonalities>
    <video name="18.1.mp4" size="2024723" type="video/mp4" volume="0.5">8867dd99276f933fffae8e8ac31deea629276bb1311a6f6189399a8c224625b8</video>
    <notes>
      <note number="1" values="38" ticks="121" durationTicks="68" ppq="96" velocity="0.843"/>
      <note number="2" values="38" ticks="207" durationTicks="58" ppq="96" velocity="0.906"/>
      <note number="3" values="28" ticks="271" durationTicks="69" ppq="96" velocity="0.957"/>
      <note number="4" values="28" ticks="371" durationTicks="70" ppq="96" velocity="0.892"/>
      <note number="5" values="28" ticks="464" durationTicks="95" ppq="96" velocity="0.967"/>
    </notes>
  </exercise>
  <exercise number="8">
    <scale>minor</scale>
    <bpm>168</bpm>
    <lowestNote>6</lowestNote>
    <tonalities>10</tonalities>
    <video name="18.2t.mp4" size="2072234" type="video/mp4" volume="0.5">38289021564bcfaa2939a0d86a3737b47049c72691f07fc3f571fa741a76759c</video>
    <notes>
      <note number="1" values="28" ticks="93" durationTicks="49" ppq="96" velocity="0.843"/>
      <note number="2" values="28" ticks="190" durationTicks="47" ppq="96" velocity="0.906"/>
      <note number="3" values="28" ticks="286" durationTicks="72" ppq="96" velocity="0.827"/>
      <note number="4" values="28" ticks="379" durationTicks="74" ppq="96" velocity="0.852"/>
      <note number="5" values="28" ticks="478" durationTicks="48" ppq="96" velocity="0.906"/>
      <note number="6" values="68" ticks="585" durationTicks="212" ppq="96" velocity="0.835"/>
      <note number="7" values="58" ticks="805" durationTicks="123" ppq="96" velocity="0.835"/>
      <note number="8" values="58" ticks="968" durationTicks="212" ppq="96" velocity="0.835"/>
    </notes>
  </exercise>
  <exercise number="9">
    <scale>minor</scale>
    <bpm>168</bpm>
    <lowestNote>6</lowestNote>
    <tonalities>10</tonalities>
    <video name="19t.mp4" size="2031676" type="video/mp4" volume="0.5">6d9a584e284d55b9e4b45013115a22fa645e8658befaa3a01084757e76c4f9de</video>
    <notes>
      <note number="1" values="38" ticks="85" durationTicks="49" ppq="96" velocity="0.843"/>
      <note number="2" values="38" ticks="182" durationTicks="47" ppq="96" velocity="0.906"/>
      <note number="3" values="38" ticks="278" durationTicks="72" ppq="96" velocity="0.827"/>
      <note number="4" values="38" ticks="371" durationTicks="74" ppq="96" velocity="0.917"/>
      <note number="5" values="38" ticks="493" durationTicks="48" ppq="96" velocity="0.906"/>
      <note number="6" values="48" ticks="546" durationTicks="73" ppq="96" velocity="0.835"/>
      <note number="7" values="38" ticks="620" durationTicks="95" ppq="96" velocity="0.835"/>
    </notes>
  </exercise>
  <exercise number="10">
    <scale>minor</scale>
    <bpm>168</bpm>
    <lowestNote>6</lowestNote>
    <tonalities>10</tonalities>
    <video name="20t.mp4" size="2439952" type="video/mp4" volume="0.5">86c32e8d87f37756d625d58e22732c3f27a7ede15722d0b333dd26f9f549ddc1</video>
    <notes>
      <note number="1" values="28" ticks="114" durationTicks="49" ppq="96" velocity="0.843"/>
      <note number="2" values="28" ticks="207" durationTicks="47" ppq="96" velocity="0.906"/>
      <note number="3" values="38" ticks="304" durationTicks="51" ppq="96" velocity="0.827"/>
      <note number="4" values="48" ticks="398" durationTicks="62" ppq="96" velocity="0.844"/>
      <note number="5" values="68" ticks="503" durationTicks="94" ppq="96" velocity="0.882"/>
      <note number="6" values="58" ticks="648" durationTicks="99" ppq="96" velocity="0.835"/>
    </notes>
  </exercise>
  <exercise number="11">
    <scale>minor</scale>
    <bpm>168</bpm>
    <lowestNote>6</lowestNote>
    <tonalities>10</tonalities>
    <video name="21t.mp4" size="2132118" type="video/mp4" volume="0.5">dea2fda747c25bf652997c8bcabd712ff14b1aa45724040ccb7cf1dc11c12ae4</video>
    <notes>
      <note number="1" values="68" ticks="125" durationTicks="50" ppq="96" velocity="0.843"/>
      <note number="2" values="68" ticks="221" durationTicks="47" ppq="96" velocity="0.842"/>
      <note number="3" values="68" ticks="319" durationTicks="80" ppq="96" velocity="0.906"/>
      <note number="4" values="68" ticks="415" durationTicks="94" ppq="96" velocity="0.814"/>
      <note number="5" values="58" ticks="510" durationTicks="48" ppq="96" velocity="0.929"/>
      <note number="6" values="18" ticks="558" durationTicks="93" ppq="96" velocity="0.844"/>
      <note number="7" values="38" ticks="655" durationTicks="95" ppq="96" velocity="0.822"/>
    </notes>
  </exercise>
  <exercise number="12">
    <scale>chromaticminor</scale>
    <bpm>168</bpm>
    <lowestNote>6</lowestNote>
    <tonalities>10</tonalities>
    <video name="22t.mp4" size="2965871" type="video/mp4" volume="0.5">a8ee60543d0a1c84828394b4da67d619c1ec9cfc67b0d714ab17593b26b20580</video>
    <notes>
      <note number="1" values="58" ticks="59" durationTicks="59" ppq="96" velocity="0.843"/>
      <note number="2" values="498" ticks="154" durationTicks="145" ppq="96" velocity="0.906"/>
      <note number="3" values="28" ticks="347" durationTicks="123" ppq="96" velocity="0.834"/>
      <note number="4" values="48" ticks="536" durationTicks="107" ppq="96" velocity="0.849"/>
      <note number="5" values="38" ticks="729" durationTicks="101" ppq="96" velocity="0.922"/>
      <note number="6" values="18" ticks="936" durationTicks="40" ppq="96" velocity="0.906"/>
      <note number="7" values="18" ticks="985" durationTicks="73" ppq="96" velocity="0.829"/>
    </notes>
  </exercise>
</level>
